<svg xmlns="http://www.w3.org/2000/svg" width="32" height="32"><path fill="#eee" style="font-feature-settings:normal;font-variant-alternates:normal;font-variant-caps:normal;font-variant-east-asian:normal;font-variant-ligatures:normal;font-variant-numeric:normal;font-variant-position:normal;font-variation-settings:normal;inline-size:0;isolation:auto;mix-blend-mode:normal;shape-margin:0;shape-padding:0;text-decoration-color:#000;text-decoration-line:none;text-decoration-style:solid;text-indent:0;text-orientation:mixed;text-transform:none" d="M3.03 13a1 1 0 0 0-.737.293 1 1 0 0 0 0 1.414l13 13a1 1 0 0 0 1.414 0l13-13a1 1 0 0 0 0-1.414 1 1 0 0 0-1.414 0L16 25.586 3.707 13.293A1 1 0 0 0 3.029 13z" color="#eee"/><path fill="#eee" style="font-feature-settings:normal;font-variant-alternates:normal;font-variant-caps:normal;font-variant-east-asian:normal;font-variant-ligatures:normal;font-variant-numeric:normal;font-variant-position:normal;font-variation-settings:normal;inline-size:0;isolation:auto;mix-blend-mode:normal;shape-margin:0;shape-padding:0;text-decoration-color:#000;text-decoration-line:none;text-decoration-style:solid;text-indent:0;text-orientation:mixed;text-transform:none" d="M5.03 4a1 1 0 0 0-.737.293 1 1 0 0 0 0 1.414l11 11a1 1 0 0 0 1.414 0l11-11a1 1 0 0 0 0-1.414 1 1 0 0 0-1.414 0L16 14.586 5.707 4.293A1 1 0 0 0 5.029 4z" color="#eee"/></svg>